<svg xmlns="http://www.w3.org/2000/svg" width="101" height="77" viewBox="150 250 295.3 341.9"><path d="M509.5 328.8s-4.2-32-17.2-45.9c-16.5-18.3-34.9-18.4-43.4-19.5-60.5-4.6-151.3-4.6-151.3-4.6h-.3s-90.8 0-151.3 4.6c-8.5 1-26.9 1.2-43.4 19.5-12.9 14.1-17.2 45.9-17.2 45.9s-4 37.3-4 74.6v35c0 37.3 4.2 74.6 4.2 74.6s4.2 31.9 17.2 45.8c16.6 18.4 38 17.8 47.7 19.8 34.7 3.5 147 4.7 147 4.7s91-.2 151.6-4.8c8.5-1 26.8-1.2 43.4-19.5 12.9-14 17.2-45.9 17.2-45.9s4.3-37.3 4.3-74.6v-35c-.2-37.4-4.5-74.8-4.5-74.8z" fill="#63d1bb" stroke="#fff" stroke-width="25" stroke-miterlimit="10"/><path fill="#fff" d="M243.5 339.8V502l135.2-81.2z"/></svg>