<svg xmlns="http://www.w3.org/2000/svg" viewBox="0 0 43.6 43.3"><defs><clipPath id="a" clipPathUnits="userSpaceOnUse"><path d="M0 32.5h32.7V0H0z"/></clipPath></defs><g clip-path="url(#a)" transform="matrix(1.33333 0 0 -1.33333 0 43.3)"><path d="M17.3 0h12.5v14H17.3zm2 27.6c.5.8 1.2 1.5 1.8 1.9.7.5 1.4.7 2 .7.7 0 1.2-.2 1.6-.6.4-.3.6-.7.6-1.1 0-.5-.3-1.3-1.5-2.2-1.1-.8-3.1-1.6-6.1-2.2.3 1.2.8 2.4 1.6 3.5M8.7 26c-.6.3-1 .7-1.2 1l-.3 1c0 .6.2 1.1.7 1.5.4.4 1 .7 1.6.7.6 0 1.3-.2 2-.7 1-.7 2-1.8 2.7-3.2.3-.7.6-1.4.7-2-3 .2-5 1-6.2 1.7m22.4-2.4h-7.4l1.4.9c1.6 1.1 2.5 2.5 2.5 4 0 1.1-.6 2.2-1.4 2.9-.8.7-1.9 1-3 1a6 6 0 01-3.3-1c-1.5-1-2.6-2.4-3.5-4V27a13 13 0 01-1.1 1.8c-.7 1-1.5 1.9-2.5 2.5a6 6 0 01-3.3 1 4.6 4.6 0 01-4.6-4.3c0-.8.2-1.5.6-2.2.6-.9 1.5-1.7 2.7-2.3H1.6C.7 23.6 0 23 0 22v-5.9h15.4v7.5h1.9v-7.5h15.4v6c0 .8-.7 1.5-1.6 1.5M2.9 0h12.5v14H2.9z" fill="#63d1bb"/></g></svg>