<svg xmlns="http://www.w3.org/2000/svg" viewBox="0 0 1280 800"><path d="M640.8 303l-.8-.1-76.7 8v140.6L640 497l76.7-45.6V310.9l-75.9-8zm65.9 142.8L640 485.4l-66.7-39.6v-57.6l66.4 39.5.1 7.1-45.5-27v6.9l45.6 27.5.1 7.3-45.7-27.2v7l45.7 27.4 46.1-27.6v-7h0V399.6l20.6-12.3v58.6zm0-66l-18.3 10.7-8.4 5-40.2-24v7l34.3 20.4-.3.2-.8.4-4.9 2.9-28.3-16.9v7l22.3 13.3-5.3 3.5-.1.1-17-10v7l11.1 6.5-11.3 6.8-66-39.3 66.1-39.7v0l67 39zm0-7l-67-39.6v0h0v0l-66.4 39.5V320l66.7-7 66.7 7v52.7z" stroke="#231f20" stroke-miterlimit="10"/></svg>