<svg xmlns="http://www.w3.org/2000/svg" height="35" width="86" viewBox="0 0 114.1 46.7"><defs><clipPath id="a" clipPathUnits="userSpaceOnUse"><path d="M0 35h85.6V0H0z"/></clipPath></defs><g clip-path="url(#a)" transform="matrix(1.33333 0 0 -1.33333 0 46.7)"><path d="M4.2 8.7c0 3.5-.3 7-.4 10.4v1l.2-.3c.5-1.4 1-2.7 1.8-4 .7-1.2 1-2.5 1.5-3.9l-.2-.6c0-.1 0-.2.2-.3.6-.4 1.6-.2 2.1 0l.7.4c.3.2.8.6.6 1v.2c.4 1 .6 2.2.8 3.3a21 21 0 001 3.5l.2-1.6c.2-2.1 0-4.2 0-6.4 0-.7 0-1.4.2-2l.2-1.6c-.5-.5-.3-1.1.4-1.3.7-.1 1.7.1 2.3.7 1 .9.5 2.4.3 3.5-.4 2 0 4.2 0 6.2 0 2.3-.4 4.5-.4 6.8 0 1.8.3 3.7-.3 5.5l.1.6c.2.8-2.7.4-3.2-.4-.3-.3-.4-.5-.3-.8v-.2c-.5-2.7-1.2-5.4-2.1-8l-1.1-3-1.4 2.9c-1.2 2.9-2.2 5.8-3.6 8.6.2 1.3-2.7 1.1-3.3 0a7.3 7.3 0 01-.3-4.4c.2-1.8.3-3.4.3-5.2l.3-10C.5 9 .4 8.5.8 8c0-.2.3-.3.4-.4.8-.6 3-.1 3 1M22.4 27.1c-.1.6-3.4 0-3.3-.9.2-1.8.1-3.5.1-5.3 0-1.8.4-3.3.6-5 .3-1.7 0-3.5.2-5.2 0-.8.6-2.3 0-3-.3-.5 1.3-.3 1.3-.3.7 0 1.5.3 2 .8.5.7.1 2 0 2.9-.2 1.7 0 3.5-.1 5.3-.1 1.6-.7 3.2-.7 4.9 0 2 .2 3.9-.1 5.8M25.5 20.5c1-2.6 4.6-1.4 6.6-1.5 3.2-.2 2.2-4.6 2.3-6.7 0-1 1-2.8.1-3.7C34 8 33 8 32.2 7.9c-.7 0-1.9-.3-2.3.4-.9 1.2 0 3.2-.1 4.6-.1.7-3.4 0-3.3-1 .3-2.1-1.2-5.1 2-5.5 2-.2 4.4.2 6.3.8 1 .3 2 .8 2.8 1.5.8.8.5 2 .3 3-.6 2.5.6 5.3-1 7.5-1.7 2.3-5 .6-7.2 1.3-1.2.3-1.2 1.9-1.2 2.8a30 30 0 01-.2 3.5c-.1.9 0 1.8.6 2.5l.7.2 1 .1c1.2 0 3.8-.2 3.3-2-.2-1 3-.4 3.3.5 1 3.8-6.2 3-8.2 2.6-1.9-.5-4-1.6-4-3.8l.3-3c0-1.1-.2-2.3.2-3.4M40 18.6l-.3-5.4c0-1 .2-1.8.3-2.8.1-.8.4-2 .2-2.7-.2-.7 3-.3 3.2.5.5 1.5-.2 3.4-.3 5-.2 1.4 0 2.9 0 4.4 1.8 0 3.5.2 5.2 0a127.2 127.2 0 01.4-6.4c0-.9.1-2.1-.2-3-.6-1.7 2.7-1.5 3.2-.2.5 1.5.4 3.5.3 5.1l-.5 6.2c0 3.2-.6 6.3-.6 9.5 0 1.7-3.3 1.1-3.3-.3 0-3 .4-6 .6-9v-.2l-5-.2c.2 3.9-.5 7.8-.3 11.7 0 .4-3.3 0-3.3-1-.2-3.7.5-7.4.4-11.2M54 13.2a50.8 50.8 0 00-.1-5c-.4-.5.4-.9 1-.9s2.2.3 2.3 1.2l.2 5.3c1.3 1.4 2.4 3 3.4 4.7a25 25 0 001.7-3.8c.7-2.3 2-4.5 2.6-6.8.5-1.5 3.8-.6 3.3.9-.7 2.3-1.8 4.5-2.6 6.7-.8 2.4-2 4.4-3 6.6l2.4 5c.7 1.5 1.2 3.2 2.6 4.3.5.3.5.7-.2.8-.8 0-1.8-.2-2.4-.7a9 9 0 01-2.7-3.6 137 137 0 00-2.4-5l-.2-.4a60.2 60.2 0 00-2.6-5c-.3 4.7-.8 9.3-1 14 0 1-3.4.4-3.3-.9.2-5.8 1-11.6 1-17.3M79 19.6c-2 0-4 .4-5.7 0l-.3 3.1c-.1 2 .1 4.7 2 6 .4.2 1.3.2 2 .3.7.1 1.6.3 2.3-.2 1-.6.8-3 .8-4l.2-5.1H79m6.7-.2c-.2.7-1.2.7-2 .6v.8c0 2.3-.1 4.6-.3 6.8-.2 2-1.3 2.8-3.3 2.7-2 0-4.5-.4-6.4-1.1a5.9 5.9 0 01-3.8-4.8c-.5-2.6.2-5.3.3-7.8.2-3 0-6 0-8.9 0-.5 3.4 0 3.4 1v7l-.1 2c1.1.5 3 0 4.2-.1 1-.1 1.9.1 2.8.2l.1-5.8c0-1 .4-3-.3-3.8-.3-.5 1.3-.3 1.4-.3.6.1 1.4.3 1.9.9.8.9.4 3.2.3 4.3V18c.9.1 2 .7 1.8 1.5M18.7 31l.1-.6V30l.4-.4c.3-.2.7-.2 1.1-.2.4 0 .9.2 1.3.4 0 0 0 .2.2.2.4.3.8.7.6 1.2C22 32 22 33 22 34c0 .8-.8 1-1.5 1-.6 0-1.8-.5-1.8-1.3v-2.5-.3M80.3 1.7c-1.6.6-3.3.7-4.9.8l-4.9.6-5-.1-4.8-.3c-6.5-.3-13-.3-19.5-.1-6.5.1-13 .5-19.7.4-3.2 0-6.5 0-9.8-.2-1.6-.3-3.3-.5-5-1-1.5-.3-3-.8-4.7-1C3.6.5 5.3.5 7 .5l4.8-.2c3.2.2 6.5.3 9.8.3C28 .6 34.6.2 41 0 47.7 0 54.2 0 60.8.2l5 .3h4.7l5 .6c1.6.2 3.2.6 4.8.5V1.7"/></g></svg>