<svg xmlns="http://www.w3.org/2000/svg" viewBox="0 0 24.8 24.3"><path d="M17.3 24.3h-1.1c-4.9-.6-8.5-2.8-11.1-5.7C2.5 15.6.4 11.9 0 6.8V5.5c0-1 .5-1.6 1-2.1.7-.7 1.7-1.5 2.6-1.6.6 0 1.8.5 2.2 1 .4.6.6 1.7.8 2.5.2.8.6 2 .5 2.7-.2 1.2-1.8 1.7-2.2 2.6 1.5 3.7 4 6.4 7.4 8.3.9-.4 1.6-1.8 2.8-1.9.4 0 1 .2 1.4.4l1.3.4c.7.3 2 .7 2.4 1.2.4.7.7 1.7.6 2.3-.2 1.2-2.3 2.6-3.5 3zM12.5 1.5c6 0 10.8 4.9 10.8 10.8h1.5C24.8 5.5 19.3 0 12.5 0v1.5z"/><path d="M12.5 9.3V11c.8 0 1.4.6 1.4 1.4h1.6a3 3 0 00-3-3zM12.5 6.3a6 6 0 016 6h1.7c0-4.2-3.4-7.6-7.7-7.6v1.5z"/></svg>