<svg xmlns="http://www.w3.org/2000/svg" viewBox="0 0 72.2 30.9"><g fill="#63d1bb"><defs><clipPath id="a" clipPathUnits="userSpaceOnUse"><path d="M0 23.2h54.2V0H0z"/></clipPath></defs><g clip-path="url(#a)" transform="matrix(1.33333 0 0 -1.33333 0 31)"><path d="M40.3 17.5a48.1 48.1 0 01-20 1l-6.8 4.7H0L5.8 17h8.5c-4.6-1.6-6.8-3.5-6.8-3.5V9.7s2.3-2 7-3.5H5.7L0 0h13.5l6.8 4.7a44.3 44.3 0 0120 1c-1.2 1.8-1.9 3.8-2 5.9.1 2.1.8 4.1 2 5.9M43.7 16.4a7.8 7.8 0 01-2-4.8c0-1.6.7-3.2 2-4.8 6.4 2.1 10.5 4.8 10.5 4.8s-4 2.7-10.5 4.8"/></g></g></svg>