<svg xmlns="http://www.w3.org/2000/svg" height="34" width="1100" viewBox="0 0 1533.3 45.3"><defs><clipPath id="a" clipPathUnits="userSpaceOnUse"><path d="M0 34h1150V0H0z"/></clipPath></defs><g clip-path="url(#a)" transform="matrix(1.33333 0 0 -1.33333 0 45.3)"><path d="M1121.3 34c-14.4 0-14.4-14-28.8-14s-14.4 14-28.7 14c-14.4 0-14.4-14-28.8-14s-14.4 14-28.7 14c-14.4 0-14.4-14-28.8-14s-14.4 14-28.7 14c-14.4 0-14.4-14-28.8-14s-14.4 14-28.7 14c-14.4 0-14.4-14-28.8-14s-14.4 14-28.7 14c-14.4 0-14.4-14-28.8-14s-14.4 14-28.7 14c-14.4 0-14.4-14-28.8-14-14.3 0-14.3 14-28.7 14-14.4 0-14.4-14-28.8-14-14.3 0-14.3 14-28.7 14-14.4 0-14.4-14-28.8-14-14.3 0-14.3 14-28.7 14-14.4 0-14.4-14-28.8-14-14.3 0-14.3 14-28.7 14-14.4 0-14.4-14-28.8-14-14.3 0-14.3 14-28.7 14-14.4 0-14.4-14-28.8-14-14.3 0-14.3 14-28.7 14-14.4 0-14.4-14-28.8-14-14.3 0-14.3 14-28.7 14-14.4 0-14.4-14-28.8-14-14.3 0-14.3 14-28.7 14-14.4 0-14.4-14-28.8-14-14.3 0-14.3 14-28.7 14-14.4 0-14.4-14-28.8-14-14.3 0-14.3 14-28.7 14-14.4 0-14.4-14-28.8-14-14.3 0-14.3 14-28.7 14-14.4 0-14.4-14-28.8-14-14.3 0-14.3 14-28.7 14-14.4 0-14.4-14-28.8-14S43.1 34 28.8 34C14.4 34 14.4 20 0 20V0h1150v20c-14.4 0-14.4 14-28.7 14" fill="#fff"/></g></svg>