<svg xmlns="http://www.w3.org/2000/svg" viewBox="0 0 45.8 45.8"><defs><clipPath id="a" clipPathUnits="userSpaceOnUse"><path d="M0 34.4h34.4V0H0z"/></clipPath></defs><g clip-path="url(#a)" transform="matrix(1.33333 0 0 -1.33333 0 45.8)"><path d="M.3 20.3c-.4-2-.4-4.2 0-6.3l4.1 3.2zM24.4 32.8a17.2 17.2 0 01-15.3-.4l7.6-5.6zM33.9 21.2l-4.8-3.8 5-3.6c.4 2.4.4 5-.2 7.4M9.2 2A17.2 17.2 0 0125 1.8L17 8zM8 20l-6.3 4.6-.8-2 5.3-4zM18.6 9.3L26.9 3a17.2 17.2 0 011.8 1.4l-8.4 6.2zM11.4 22.7L4 28.2a17 17 0 01-1.3-1.7l7-5.2zM22 12l8.2-6 1.3 1.6-7.7 5.8zM15 25.4l-7.8 5.8a16.4 16.4 0 01-1.7-1.4l7.7-5.8zM25.6 14.7l7-5.2.8 2-6 4.6zM26.4 31.7L1 11.7l.8-2 26.5 20.7-1.8 1.3M30.7 27.7l-.9 1.2-27-21A16.9 16.9 0 014 6l27 21.1c0 .2-.2.4-.4.5M32.3 25.4L5.6 4.5c.5-.5 1-1 1.7-1.3l26 20.2a17 17 0 01-1 2" fill="#63d1bb"/></g></svg>