<svg xmlns="http://www.w3.org/2000/svg" viewBox="56.5 50 15 27.7"><path d="M68.2 55.2c1 0 2 0 2.7-.3a8 8 0 00.6-3c-.2 0 0-.3-.2-.4 0-.2-.3-.2-.3-.4l-.8-.6-2.1-.5c-.9 0-2-.1-2.6.1-2.6 0-4 1.1-5.3 2.4v.2c-.6 1.6-.2 3.6-.3 5.6l.2 1.4c-1 .3-2.2.4-3.4.5-.3.3-.1 1-.2 1.7l.4 1.5.9.5v.1c.6.3 1.5 0 2.3.1-.1 2 .3 4 0 5.7 0 .3.3.4.3.8 0 1-.1 2 .2 2.7-.3.5-.5 1-.5 1.8.2 0 .2.2.1.3 0 .5.7.2.6.7.1.5-.5.2-.4.5v.9c.5.3 1.4.2 2.2.2 1-.4 2.2-.5 2.8-1.2.5.2 1 0 1.3-.2 0-.3.2-.3.2-.7 0-.3-.2-.5-.1-.9v-2.9c-.2-2.3 0-5-.3-7.2.8 0 1.9 0 2.5-.4.4-.4.4-1.2.6-1.9l.2-1c.2-.2 0-.7 0-1 0-.7-.1-1.4-.8-1.5-.8-.2-2 .6-3 .3 0-1-.2-2.3 0-3.4.8 0 1.5-.3 2.2-.5zM64.4 60l.4.7h.2c1.2.1 2.2 0 3-.2 0 1-.2 1.7-.4 2.5-.7 0-1.5.3-2 .2-.3.1-.4.5-.6.7 0 .4.1.5 0 .8-.2.1 0 .6-.2.8V67c0 .2-.2.2-.1.5V71v3.5c.1.2 0 .7.2.8-.1.4-.4 0-.9.1-.5.2-.9.4-1.5.4.1-.3.3-.6.3-1s-.4-.4-.5-.6c.2-.6.6-1 .7-1.7.2-.6.7-1.3.3-1.8-.5-.2-.5.2-.8.4l-.1.2-.1.2s-.2 0 0 0v-.2c.1-.1 0-.2.2-.2v-.3c.4-.6.7-1.2.8-2l.4-1c.2-.3.4-.9.1-1.2-.5 0-.8.3-.9.7-.3-.2.2-.5.1-.7l.3-.8c.2-.4.6-1.3 0-1.6-.4 0-.6.2-.7.5l-.5.7c-.4-.1-.2-.8-.2-1.1V63c-.6-.8-2-.1-3.2-.3-.2-.3-.3-1-.1-1.2 1-.1 2.4.2 3.2-.2v-.2c.2-.7-.2-1-.4-1.4.2-.8 0-2 0-3l.6-.6c0-1 .6-1.5.7-2.5-.3 0-.6 0-.6.2-.3-.1-.4.5-.5.2-.2-.5.2-.6.3-1a27 27 0 011.8-1.2 14 14 0 016.1.2c0 .6-.3.8-.2 1.5h-1.5c-1.1.2-2 .7-3 1-.3 0-.3.3-.6.4 0 .4-.2.6-.3 1l.2 4z" fill="#231f20"/></svg>