<svg xmlns="http://www.w3.org/2000/svg" viewBox="0 0 42.6 49.7"><defs><clipPath id="a" clipPathUnits="userSpaceOnUse"><path d="M0 37.3h32V0H0z"/></clipPath></defs><g clip-path="url(#a)" transform="matrix(1.33333 0 0 -1.33333 0 49.7)"><path d="M0 16A16 16 0 0116 0 16 16 0 010 16m16 13.3a4.4 4.4 0 100-8.9 4.4 4.4 0 000 9M4.6 20.8a4.4 4.4 0 017-3.7V17a4.4 4.4 0 018.8 0v.3c.7-.5 1.6-.8 2.5-.8a4.4 4.4 0 011.9 8.5 4.4 4.4 0 11-4.4 7.6v.4a4.4 4.4 0 01-8.9 0v-.4c-.6.5-1.5.8-2.4.8a4.4 4.4 0 01-2-8.4 4.4 4.4 0 01-2.5-4M16 0a16 16 0 0116 16A16 16 0 0116 0" fill="#63d1bb"/></g></svg>