<svg xmlns="http://www.w3.org/2000/svg" height="62" width="40" viewBox="0 0 53.6 83.2"><g fill="#149080"><defs><clipPath id="a" clipPathUnits="userSpaceOnUse"><path d="M0 62.4h40.2V0H0z"/></clipPath></defs><g clip-path="url(#a)" transform="matrix(1.33333 0 0 -1.33333 0 83.2)"><path d="M15.2 24.5a8 8 0 010-3.7c.5-2.6 1.7-6 2.4-9.7h5c.7 3.7 2 7 2.5 9.7.3 1.5.3 2.7 0 3.6-.2 1-.9 1.7-2 2.3h-6c-1-.6-1.7-1.3-2-2.2M27 4.5H13.2c-1.3 0-2.3-1-2.3-2.3V0H29.3v2.2c0 1.3-1 2.3-2.3 2.3M34.1 60.2H22.4c0 1.2-1 2.2-2.3 2.2-1.3 0-2.3-1-2.3-2.2H6.1L0 34.7c.8.4 1.6 1 2.6 1 1.4 0 2.3-.9 3-1.4.6-.6 1.1-.9 1.4-.9.3 0 .8.3 1.5.9.6.5 1.5 1.3 2.9 1.3 1.3 0 2.2-.8 2.9-1.3.7-.6 1.1-.9 1.4-.9l.6.2.9.7c.5.4 1.1 1 2 1.2l1 .1c1.3 0 2.1-.8 2.8-1.3.7-.6 1.2-.9 1.5-.9.3 0 .7.3 1.4.9.7.5 1.6 1.4 3 1.4 1.3 0 2.2-.9 2.9-1.4l.8-.7.6-.2c.3 0 .8.3 1.5.9.6.5 1.5 1.4 2.9 1.4 1 0 1.8-.6 2.6-1zM23.5 9h-6.8c-.7 0-1.2-.6-1.2-1.2s.5-1.1 1.2-1.1h6.9a1.1 1.1 0 110 2.2zM20.1 33.4l-.6-.2-.5-.4V29h2.3v3.8c-.5.4-1 .6-1.2.6"/></g></g></svg>