<svg xmlns="http://www.w3.org/2000/svg" height="60" width="60" viewBox="0 0 80 79.5"><defs><clipPath id="a" clipPathUnits="userSpaceOnUse"><path d="M0 59.6h60V0H0z"/></clipPath></defs><g clip-path="url(#a)" transform="matrix(1.33333 0 0 -1.33333 0 79.5)"><path d="M30 53c4.2 0 7.6 1.5 7.6 3.3 0 1.8-3.4 3.3-7.7 3.3-4.3 0-7.7-1.5-7.7-3.3 0-1.8 3.4-3.3 7.7-3.3m2.7-29.9V0L60 16v23zm5.1 14c0-1.9-3.5-3.4-7.7-3.4-4.3 0-7.8 1.5-7.8 3.3v4c.3-1.6 3.7-3 7.8-3 4 0 7.4 1.4 7.7 3zm13.6 10v-2.4c0-1.8-3.4-3.3-7.7-3.3-4.3 0-7.7 1.5-7.7 3.3v4c.3-1.6 3.6-3 7.7-3 4.3 0 7.7 1.5 7.7 3.3 0 1.8-3.4 3.3-7.7 3.3h-1l-5 2.8v-3c0-1.9-3.4-3.3-7.7-3.3-2.7 0-5 .6-6.4 1.4l-.7.6c-.4.4-.6.8-.6 1.3v3l-4.8-2.8h-1c-4.3 0-7.8-1.5-7.8-3.3 0-1.8 3.5-3.3 7.7-3.3 4.1 0 7.5 1.4 7.7 3v-4c0-1.8-3.4-3.3-7.7-3.3-4.2 0-7.7 1.5-7.7 3.3v2.5l-6-3.5 27.6-16 27.3 15.9zM0 16L27.4 0v23.4L0 39.3z" fill="#149080"/></g></svg>