<svg xmlns="http://www.w3.org/2000/svg" height="72" width="149" viewBox="0 0 197.4 96.9"><defs><clipPath id="a" clipPathUnits="userSpaceOnUse"><path d="M0 72.7h148V0H0z"/></clipPath></defs><g clip-path="url(#a)" transform="matrix(1.33333 0 0 -1.33333 0 97)"><path d="M87.8 56.4l-.1-.2a38.5 38.5 0 00.3 1l-.2-.8m55.4-15c-1.5-1.1-3-2-4.7-2.9 0 1.8-.1 3.5-.6 5.2l.2 1c.3 3 .6 7-2 9.2-.4.3-1.3 0-2-.3l-.5.4-.2.8-.3.2c.2.4.2.8-.5 1a18.6 18.6 0 01-1.3.5c-1 .3-1.9.6-2.8.7 0 .4.3.9.5 1a5 5 0 00.7.7c.5.4 1 1 .3 1.3-.6.3-1.5.1-2-.3a6.6 6.6 0 01-2.1-2.3 50 50 0 01-6 .3c.2.6-.8.5-1.1.5l-4.7-.6c1.3 3.8 3 8.6 1 12.2-1.2 2.2-4 2.6-6.1 2.7-2.5 0-5-.5-7-1.6-4.8-2.7-7.2-7.7-8.3-13.2-.5.7-2.3.5-2.6-.4l-.3-1-.4-.7v-.1h-.2v.3a73.9 73.9 0 002.2 7.2c.3.7-2.4.4-2.7-.5-.5-1.1-.8-2.4-1.1-3.6-.2 0-.4-.2-.5-.3v-.1l-.5.2v1c0 .4-2.8 0-2.8-.8v-1.6c-.2 0-.3-.2-.5-.3l-.2-.1v-.3H84v-.1c-.2-.1-.2-.4 0-.5.1-.1.4-.2.6-.1h.2v-.5h-1.1c0 .4-.7.5-1.3.4v.1L82 58l.7.3c.2.1.3.3.3.5v.2l-.5.2H82v3.8c0 .9-2.9.4-2.9-.7 0-1.8 0-3.6.2-5.4h-.2v1.6c0 1-1.3 1.2-2.2.8.3.2.5.6.4 1-.4 1.4-.8 2.8-1 4.3-.2 1.4-3 .7-2.8-.8.2-1.4.6-2.8 1-4.2.2-.9 1.3-1 2-.5a1 1 0 01-.3-.8v-.6l-.8.1c-1 0-1.6-.9-1.4-1.5l-.5.1c-.3 1.3-.7 2.5-.7 3.9 0 .9-1.2 1-2 .6l-.1.2c-.4.8-.6 1.7-.8 2.5-.3 1.4-3.2.6-2.8-.7l.5-2c-.4 0-.7-.1-1-.3-.8-.1-1.8-.6-1.7-1.2l.2-1.5-1.6-.2a12 12 0 00-.6 2.4c-.2 1-1.6.9-2.4.3-.7 2-1.8 4-3 5.7a11.2 11.2 0 01-11.3 3.8 9 9 0 01-5-2.6c-1.3-1.4-1.4-3.1-1.2-4.8.1-1.5.6-4 1.5-6l-.9-.1a11 11 0 01-.8-.4H34c-4.2.2-8.3 1-12.5.8-1 0-1.6-.7-1.5-1.3-1-.5-1.7-1.3-2.1-2.3a54 54 0 01-5.4 3.3c-.7.3-3.3-.7-2.3-1.3 1.9-.9 3.6-2 5.3-3.2.5-.3 1.3-.1 1.9 0l.1.2c-.3-1.5-.1-3.1.3-4.5l.1-.3v-1-.2c-.4-.2-.7-.5-.7-.8l-.3-4.2a1 1 0 01-.5-.8c-.3-3.4 0-6.7.4-10 .2-2.7.7-5.3 1.2-8l.2-1.2a9.7 9.7 0 01-.3-3.5c-.8-.2-1.7-.9-1.2-1.6a9 9 0 012.6-2.7c-.6.1-1.4-.1-1.9-.5L15 10.4c-.4-.4-.3-1 .3-1 .7-.2 1.5 0 2 .5l2.5 2.3c.3.3.3.5.2.7 3.2-1.7 7.3-1.2 11.1-.9-.8-1.6-1.5-3.3-2.1-5-.3-.7 2.5-.4 2.8.4.6 1.7 1.2 3.4 2 5 3.8-.2 7.6-.2 11.3-.1.1-.2.4-.3.7-.4 3.3-.3 6.5.1 9.7.7l14.4.9c7.5.1 15 .3 22.6.3l.3-.3c.3-.3.6-.4 1-.4h.2a69.7 69.7 0 002.7-.2l2.3-.2c.2-.2.5-.3.8-.3l11.4-.8c.2-.2.6-.3.9-.3 7 0 15.2-2.8 21.5 1.7.5.4.3 1-.2 1h-.4v.1c1.2 2.8 2.2 5.6 3 8.6.4.2.6.4.6.8a34.3 34.3 0 00.9 6.3c.3 2.2.8 4.4 1 6.6 2.3 1.1 4.5 2.3 6.6 3.8 1.6 1-.8 1.9-1.8 1.1"/><path d="M63.3 60l.7-.1c.4 0 .8 0 1.1.2.4.2 1.1.5.8 1l-1 1.8c-.1.2-.5.2-.7.2A3 3 0 0163 63c-.4-.2-1.1-.6-.8-1 .3-.6.6-1.3 1-1.8M20.7 61.8c.2-.6 1-.6 1.6-.5.5.1 1.4.6 1.2 1.3-.2.6-.4 1.2-.9 1.7s-1.3.5-1.9.2c-.4-.2-1.2-.9-.7-1.4.4-.4.5-.7.7-1.3M30.7 58.8c.8 0 3 1.3 1.1 1.3-.8 0-3-1.3-1.1-1.3M122.6 60.4h1c.3.2.7.3 1 .6l1 1.1v.6l-.8.3c-.4 0-.8 0-1.2-.2-.2-.1-.6-.3-.7-.6a3 3 0 00-.4-.6l-.2-.2c-.2-.1-.4-.3-.3-.6 0-.2.3-.3.6-.4M135.9 55c.6 0 1.4.3 1.9.7 1.3 1 2.6 2.2 3.6 3.6.3.4-1 .3-1.1.2-.6 0-1.4-.2-1.7-.7-1-1.3-2.2-2.3-3.4-3.4-.5-.4.4-.4.7-.4M146.7 28H142c-.6 0-1.5-.5-1.6-1.2 0-.7.8-1 1.3-1h4.9c.6 0 1.5.5 1.5 1.2.1.8-.7 1-1.3 1M57 12c-.5-.2-1.4-.4-1.6-1-.6-1.2-1-2.5-1.4-3.8-.2-.7 2.6-.3 2.8.4.4 1.4.8 2.7 1.4 4 .2.5-1 .4-1.2.3M61.6 9.3l-1-.1-1-.4c-.1 0-.3-.2-.3-.4v-.3a.8.8 0 00-.2-.3v-.3h.8l1 .2c.3.1.7.2.9.4l.2.5v.6l-.4.1M116.7 5.7c-.4.6-3-.4-2.9-.8.9-1.6 2-3.1 3-4.7.4-.7 3 .4 2.8.8-1 1.5-2.1 3-3 4.7M120.7 8c-.3.6-1 .6-1.6.4-.3 0-1.5-.6-1.2-1.2l1.2-2.3c.3-.6 1-.6 1.6-.4.4 0 1.5.6 1.2 1.2L120.7 8M5.7 29.6l-4.5-1C.6 28.5-.2 28 0 27.3c.2-.7 1.2-.7 1.7-.6 1.5.5 3 .7 4.5 1 .5.2 1.3.7 1.1 1.3-.2.7-1 .7-1.6.6"/><path d="M43.8 32.6c-.1 2.7-.6 5.4-.5 8.1 0 2.2.4 4.5-.4 6.6l.2.7c.1 1-3.3.5-3.9-.5-.3-.3-.5-.6-.4-1l.1-.2c-.6-3.2-1.6-6.4-2.6-9.5-.4-1.2-1-2.4-1.3-3.6l-1.7 3.4c-1.4 3.5-2.6 7-4.3 10.3.2 1.6-3.2 1.4-4 0a8.7 8.7 0 01-.4-5.3c.3-2 .4-4 .4-6.1 0-4 .4-8 .4-12-.3-.5-.4-1 0-1.4.1-.3.3-.4.5-.6 1-.7 3.6-.1 3.6 1.3 0 4.1-.4 8.3-.5 12.5v1.2l.2-.5c.6-1.6 1.3-3.2 2.2-4.7.9-1.5 1.3-3 1.8-4.7-.2-.2-.3-.4-.2-.7 0-.2 0-.3.2-.4.7-.5 1.9-.2 2.6 0l.8.5c.3.2.9.7.7 1.1v.3l1 4c.2 1.4.7 2.8 1.2 4.2l.2-2c.2-2.5 0-5 0-7.6 0-.9 0-1.7.2-2.5 0-.3.4-1.8.3-1.9-.6-.6-.5-1.3.4-1.4.9-.2 2 0 2.8.7 1.2 1.1.6 2.9.3 4.3-.4 2.3.1 5 0 7.4M52.2 32c0 2-.8 3.8-.8 5.8 0 2.4.2 4.7-.1 7-.2.7-4.1-.1-4-1 .3-2.2.2-4.3.2-6.5 0-2 .4-4 .7-6 .3-2 0-4.1.1-6.2.2-1 .8-2.8.1-3.6-.4-.6 1.5-.4 1.6-.4.8.2 1.8.4 2.3 1.1.7.8.2 2.4 0 3.4-.2 2 0 4.2-.1 6.3M68.7 35.3c-2.1 2.8-6 .8-8.7 1.5-1.4.4-1.4 2.3-1.4 3.5 0 1.4 0 2.7-.2 4.1-.2 1.1 0 2.2.7 3l.8.3 1.1.1c1.6 0 4.7-.2 4-2.5-.2-1 3.7-.4 4 .6 1.2 4.7-7.4 3.8-9.8 3.1-2.2-.5-4.7-1.8-4.8-4.4l.3-3.6c0-1.4-.2-2.8.3-4.2 1-3 5.6-1.6 7.8-1.7 4-.3 2.8-5.5 2.8-8 0-1.3 1.2-3.4.2-4.5-.6-.7-2-.7-2.8-.8-.8 0-2.2-.3-2.8.5-1 1.4.1 3.8 0 5.4-.2 1-4.2.1-4-1 .3-2.7-1.4-6.2 2.4-6.7 2.5-.3 5.2.2 7.6 1a9 9 0 013.2 1.8c1 1 .7 2.3.5 3.5-.7 3 .7 6.4-1.2 9M86.2 35.5c-.2 3.8-.7 7.5-.8 11.4 0 2-4 1.3-4-.4 0-3.6.6-7.2.7-10.8v-.3l-5.9-.2c.2 4.7-.6 9.3-.4 14 0 .6-3.9 0-4-1.1-.1-4.5.6-9 .5-13.5 0-2.2-.2-4.3-.3-6.5 0-1 .2-2.2.4-3.3.1-1 .5-2.3.2-3.3-.3-.8 3.6-.3 3.9.7.5 1.8-.3 4-.4 5.9-.2 1.7 0 3.5 0 5.3 2 .1 4.1.3 6.2 0a158.6 158.6 0 01.5-7.7c0-1 .1-2.5-.2-3.5-.8-2 3.2-1.9 3.7-.3.7 1.8.5 4.2.4 6.2-.1 2.4-.5 4.9-.5 7.4M103.2 31c-1 2.7-2.4 5.2-3.6 7.8l3 6c.8 1.8 1.4 3.8 3 5 .6.5.6 1-.2 1-.9.1-2-.1-2.8-.7a10.8 10.8 0 01-3.2-4.3l-3-6.1-.2-.5c-.5-.3-.8-.7-.6-1.3-.8-1.5-1.6-3.1-2.6-4.6-.3 5.6-1 11.2-1.1 16.7 0 1.3-4 .5-4-1 .3-7 1.3-13.9 1.3-20.8-.3-.4-.2-.5 0-.7 0-1.7 0-3.5-.2-5.3-.5-.7.5-1.1 1.1-1.1h.1c.8 0 2.7.4 2.8 1.4l.2 6.3c1.6 1.8 3 3.7 4 5.7.8-1.5 1.6-3 2-4.6 1-2.8 2.4-5.3 3.2-8.1.6-1.8 4.5-.7 4 1-.8 2.8-2.2 5.4-3.2 8.1M112.2 35.8l-.3 3.8c-.2 2.3.1 5.6 2.3 7 .6.4 1.7.3 2.4.5 1 .1 2 .3 2.8-.2 1.3-.8 1-3.7 1-5l.3-6H119c-2.3 0-4.6.3-6.8-.1m14.8-.2c-.3.9-1.4.9-2.3.8v1c-.2 2.7-.2 5.4-.5 8.1-.2 2.5-1.6 3.4-4 3.3-2.4-.1-5.2-.5-7.5-1.4a7 7 0 01-4.6-5.8c-.6-3 .2-6.2.4-9.3V21.7c0-.6 4 0 4 1v8.5l-.1 2.4c1.3.6 3.7 0 5-.1 1.2-.1 2.2.2 3.3.3l.2-7c0-1.2.5-3.6-.3-4.6-.5-.5 1.5-.3 1.5-.3.9.1 1.8.4 2.4 1 1 1.2.4 3.9.4 5.2l-.2 5.8c1.2.2 2.5.9 2.3 1.7M48.8 47.5c.5 0 1 .3 1.5.6l.2.2c.5.3 1 .8.8 1.4-.6 1-.5 2.2-.5 3.4 0 1-1 1.3-1.8 1.2-.7 0-2.2-.6-2.2-1.6s0-2 .2-3l-.2-.3c0-.2 0-.5.2-.6v-.2-.3c0-.2.2-.4.4-.5.4-.3 1-.3 1.4-.3" fill="#fff"/></g></svg>