<svg xmlns="http://www.w3.org/2000/svg" viewBox="52.3 53.8 23.5 20.2"><path d="M75.7 57.9c-.2-.4-.9-.3-1.4-.4h-1.1l.5-1c0-.4.3-.7.2-1.2l.3-.6c.1-.2.3-.5.1-.7 0-.2-.3-.2-.6-.2l-.2.1-1.3 1.4-.1.1-.4.2c-.3.2-.5.5-.9.6a6 6 0 00-1.8-.4c-1.2 0-2.3.2-3 .7-1 .4-1.6 1-2.2 1.7 0 .3-.4.4-.4.7l-.1.6c0 .1.2.4 0 .5-.9-.1-1.5-.6-2.2-1-.7-.3-1.5-.5-2-1-.8-.4-1.3-.9-1.8-1.4-.2-.3-.6-.5-.7-.9-.4-.1-.2-.9-.7-.9-.4 0-.4.2-.5.4 0 .2-.3.2-.4.5v.1c-.2 1-.6 2-.5 3.3 0 .4.3.7.5 1-.4 0-.7.2-.8.5-.1 1 .3 1.7.7 2.3.1.4.3.7.6 1 0 .2.2.3.3.4l.1.3s.3.1.1.2c-.4.1-1 0-1.3.3a2 2 0 000 1.2c0 .2.3.2.3.5l1.7 1c.5.3 1.2.4 1.8.5 0 .3-.3.5-.6.7-.7.4-1.8.5-2.7.7-.6 0-1 .3-1.6.3-.3 0-.8 0-1 .2-.2 0-.2 0-.3.2-.1.4.1.7.4.9 0 .2.3.3.4.4l.5.3c.5.5 1.2.8 1.9 1.1l2.5.6c1 0 2 0 2.8.2h3.4c.5-.3 1.2-.4 1.6-.8.6-.2 1-.6 1.5-.9 1-.7 2-1.3 2.6-2.3l.4-.8c.3-.1.4-.4.6-.6l1-1.4 1-1.6.2-.9c.2-.2.2-.7.4-.9v-.6c.1-1.3 0-2.4-.2-3.4.6-.1 1.2-.3 1.6-.6.5-.2 1-.6.8-1.2zm-3.4 4c-.1.9-.6 1.4-1 2l-.1 1a4 4 0 00-.4 1l-.5.8-1.2 1.6-1.3 1.5-1.4 1.3a5 5 0 00-1.3.7 5 5 0 00-.7.3c-.1.1-.5.1-.6.3-1.1.1-2.3.2-3.6.1-1 0-2.1-.1-3-.3-1-.2-1.5-.7-2.3-1 .1-.3.6-.2 1-.3 0-.2.3 0 .4-.1.2 0 .3-.2.5-.1.6-.2 1.2-.3 1.7-.6.3-.1.4-.4.7-.6 0-.2 0-.3.2-.4 0-.3.2-.5.1-.9.1-.2.3-.3.3-.6 0-.2-.1-.3-.3-.4 0-.2-.3 0-.4-.2h-.6c-.1-.1-.5 0-.5-.2-.9 0-1.3-.4-1.9-.7.5-.3 1-.3 1.4-.7.5-.1 1-.2 1-.7 0-.7-.7-.7-1.3-.8-.7-.7-1.2-1.7-1.7-2.5l.7-.5c.4 0 .5-.2.7-.5 0-.5-.4-.6-.6-.8l-.7-.8v-2.3h.1l.9 1.2c.5.4.9.9 1.5 1.1.5.5 1.1.7 1.6 1l1.7 1c.7.2 1 .6 2 .6l.6-.3c.2-.5 0-1.1.1-1.7.3-.6.8-1 1.3-1.4l.8-.6c.4 0 .7-.2 1-.3l1-.2h1.3l.7.2c.2.1.4.3.7.3.8.7 1.3 1.7 1.4 3V62zm.3-5.6c-.1.3-.2.7-.6.8l-.1-.2c0-.2.2-.2.2-.3.2 0 .3-.3.5-.3 0 0 .1 0 0 0zm-5.5 3c.2.2.3.4.5.4.1.2.3.3.6.4 0-.2.4 0 .4-.2.2 0 .2-.3.3-.3 0-.6-.1-1-.4-1.4-.7-.4-1.7 0-1.4 1.1z" fill="#231f20"/></svg>